<svg width="51" height="32" viewBox="0 0 51 32" fill="none" xmlns="http://www.w3.org/2000/svg">
<path d="M7.9565 0H0V6.81139H7.97384C13.0126 6.81139 17.112 10.9335 17.112 16C17.112 21.0665 13.0126 25.1883 7.97384 25.1883H0V32H7.9565C16.7309 32 23.8692 24.8227 23.8692 16C23.8692 7.17765 16.7306 0 7.9565 0ZM42.1436 24.9361C37.2436 24.9361 33.2564 20.9281 33.2564 16.0009C33.2564 11.0744 37.2427 7.06513 42.1436 7.06513H50.1165V0H42.1604C33.3859 0 26.2474 7.17734 26.2474 16C26.2474 24.8223 33.3859 32 42.1604 32H50.1165V24.9352H42.1436V24.9361Z" fill="black"/>
</svg>
